<svg id="Layer_1" data-name="Layer 1" xmlns="http://www.w3.org/2000/svg" viewBox="0 0 841.89 595.28"><defs><style>.cls-1{fill:#2e3192;}</style></defs><title>RH_Logo</title><path class="cls-1" d="M264.35,199.8h-10V172a7.12,7.12,0,0,0-1.43-4.76q-1.43-1.67-5-1.67H222V199.8H212V116.51h29.75a30.88,30.88,0,0,1,11.18,1.84,23,23,0,0,1,7.91,4.94,20.39,20.39,0,0,1,4.76,7.2,23.46,23.46,0,0,1,1.61,8.63v3.57a19.09,19.09,0,0,1-2.56,9.28,16.82,16.82,0,0,1-7.91,7.14v1.43a8.42,8.42,0,0,1,7.62,9.28v30ZM222,156.25h18.56q8.45,0,12.55-3.63T257.21,142v-2.14a13.32,13.32,0,0,0-4.11-10.17q-4.1-3.86-12.55-3.87H222v30.46Z"/><path class="cls-1" d="M285.89,116.51h50.45v9.28H295.88v27.6h39.74v9.28H295.88v27.84h41.17v9.28H285.89V116.51Z"/><path class="cls-1" d="M353,116.51h19l11.19,79h1.43l11.19-79h19V199.8h-9.28v-79h-1.43L393,199.8H374.89l-11.18-79h-1.43v79H353V116.51Z"/><path class="cls-1" d="M432.63,148.87q0-16.18,7.73-25.11t21.54-8.92q13.8,0,21.54,8.92t7.73,25.11v18.56q0,16.66-7.73,25.34t-21.54,8.69q-13.8,0-21.54-8.69t-7.73-25.34V148.87Zm29.27,43.31q9.64,0,14.46-6.6t4.82-18.86V149.58q0-11.42-4.82-18.44t-14.46-7q-9.64,0-14.46,7t-4.82,18.44v17.13q0,12.26,4.82,18.86T461.9,192.18Z"/><path class="cls-1" d="M500.3,116.51h58.54v9.28H534.57v74h-10v-74H500.3v-9.28Z"/><path class="cls-1" d="M577.17,116.51h50.45v9.28H587.16v27.6H626.9v9.28H587.16v27.84h41.17v9.28H577.17V116.51Z"/><rect class="cls-1" x="214.11" y="219.72" width="11.23" height="257.71"/><rect class="cls-1" x="617.23" y="219.72" width="11.92" height="257.71"/><path class="cls-1" d="M276.4,394.14h10V431h35.46V394.14h10v83.29h-10V440.31H286.4v37.12h-10V394.14Z"/><path class="cls-1" d="M405.09,456.73h-35.7l-6.07,20.7H352.62l25.23-83.29h18.8l25.23,83.29H411.16Zm-18.56-58.3-14.4,49h30.22l-14.4-49h-1.43Z"/><path class="cls-1" d="M463.11,469.82a20.24,20.24,0,0,0,8.75-1.72,16.5,16.5,0,0,0,5.95-4.64,19.75,19.75,0,0,0,3.45-6.66,27.27,27.27,0,0,0,1.13-7.91v-1.43h10v1.43a36.19,36.19,0,0,1-1.9,11.84,27.82,27.82,0,0,1-5.59,9.64,25.5,25.5,0,0,1-9.16,6.42,32.08,32.08,0,0,1-12.61,2.32q-13.8,0-21.54-8.69t-7.73-25.34V426.5q0-16.18,7.73-25.11t21.54-8.92a32.08,32.08,0,0,1,12.61,2.32,25.5,25.5,0,0,1,9.16,6.42,27.8,27.8,0,0,1,5.59,9.64,36.19,36.19,0,0,1,1.9,11.84v1.43h-10V422.7a30.74,30.74,0,0,0-1.25-7.85,19.71,19.71,0,0,0-3.45-6.72,16.64,16.64,0,0,0-5.89-4.64,19.85,19.85,0,0,0-8.69-1.72q-9.64,0-14.46,7t-4.82,18.44v17.13q0,12.26,4.82,18.86T463.11,469.82Z"/><path class="cls-1" d="M524.78,477.43h-10V394.14h10V431h2.73l32-36.88H571.9v0.71l-34.51,40.22v1.43l35.93,40.22v0.71H560.71l-33.2-37.12h-2.73v37.12Z"/></svg>